<svg width="197" height="222" viewBox="0 0 197 222" fill="none" xmlns="http://www.w3.org/2000/svg">
<path d="M123.907 148.538C120.297 149.888 116.487 150.848 113.127 152.648C98.6768 160.388 88.7768 173.138 78.1368 185.038C73.9168 189.758 70.0868 194.808 65.8568 199.518C46.4968 221.048 20.6168 217.838 7.26679 192.148C1.46679 180.958 -0.423206 168.808 0.0767936 156.348C0.386794 148.528 5.69679 143.158 12.3168 143.078C19.5468 142.988 24.0868 147.928 22.6768 154.978C20.6868 164.958 22.8968 174.148 27.2968 182.938C32.5668 193.478 40.1568 194.438 47.1568 185.028C56.3868 172.628 65.1968 159.898 73.8068 147.058C84.8268 130.628 95.6768 114.078 106.157 97.2983C109.077 92.6283 110.587 87.0283 112.327 81.7183C112.767 80.3883 112.017 77.9783 110.957 77.0683C110.127 76.3483 107.387 76.5783 106.497 77.4283C103.037 80.7283 99.6168 84.1983 96.8268 88.0683C87.9368 100.378 77.7668 111.178 63.9368 118.008C43.8168 127.948 8.71679 121.498 5.90679 86.5483C3.69679 59.1383 14.9668 37.2283 36.1168 20.5383C80.6968 -14.6117 147.497 -3.30165 177.367 44.2083C187.557 60.4183 192.547 78.4883 194.667 97.2983C197.177 119.588 196.717 141.808 190.967 163.688C185.567 184.258 174.607 201.048 157.057 213.208C147.407 219.888 136.677 223.298 124.967 220.078C112.417 216.628 106.967 207.388 110.537 194.828C114.117 182.238 118.767 169.958 122.947 157.538C123.767 155.088 124.557 152.638 125.367 150.188C124.887 149.638 124.397 149.078 123.917 148.528L123.907 148.538ZM98.9568 141.718C99.3968 142.218 99.8368 142.728 100.287 143.228C101.597 142.448 102.887 141.658 104.207 140.898C111.407 136.768 118.487 132.378 125.867 128.588C132.557 125.148 138.837 126.848 144.237 131.788C150.777 137.758 151.307 145.088 148.237 152.818C145.537 159.608 142.137 166.108 139.487 172.908C137.577 177.808 135.797 182.918 135.157 188.088C134.827 190.688 136.457 195.048 138.467 196.038C140.767 197.168 145.057 196.348 147.467 194.798C157.267 188.508 164.067 179.578 167.947 168.538C177.657 140.828 177.067 112.688 171.207 84.3883C167.217 65.1483 157.807 48.3383 142.697 36.3583C113.337 13.0883 66.6668 15.7183 39.7768 45.3183C29.5468 56.5783 25.0968 70.0983 27.9468 85.4383C29.5968 94.2983 36.3968 101.638 44.5668 101.498C49.9068 101.408 56.1468 99.7683 60.3068 96.6083C68.1768 90.6283 75.0868 83.2783 81.9468 76.0783C88.8268 68.8683 94.6968 60.6583 101.877 53.7883C108.487 47.4583 120.297 46.9683 128.107 51.2683C135.227 55.1983 140.707 65.6783 139.837 73.5383C138.437 86.1983 134.367 97.8883 126.527 107.968C119.067 117.558 111.157 126.788 103.447 136.178C101.947 138.008 100.467 139.868 98.9768 141.708L98.9568 141.718Z" fill="url(#paint0_linear_1_17)"/>
<defs>
<linearGradient id="paint0_linear_1_17" x1="145.12" y1="1.34114e-06" x2="50.9953" y2="221.304" gradientUnits="userSpaceOnUse">
<stop stop-color="#72F1FF"/>
<stop offset="1" stop-color="#F5B3B3"/>
</linearGradient>
</defs>
</svg>
